{
	"asset":{
		"generator":"Khronos glTF Blender I/O v4.1.62",
		"version":"2.0"
	},
	"scene":0,
	"scenes":[
		{
			"name":"Scene",
			"nodes":[
				0,
				1,
				2,
				3,
				4
			]
		}
	],
	"nodes":[
		{
			"mesh":0,
			"name":"800x800x400",
			"scale":[
				0.4000000059604645,
				1,
				0.4000000059604645
			],
			"translation":[
				-4,
				0,
				0
			]
		},
		{
			"mesh":1,
			"name":"800x800x800",
			"scale":[
				0.4000000059604645,
				1,
				0.4000000059604645
			],
			"translation":[
				-6.691780090332031,
				0,
				0
			]
		},
		{
			"mesh":2,
			"name":"1600x800x800",
			"scale":[
				0.4000000059604645,
				1,
				0.4000000059604645
			],
			"translation":[
				-7.706166744232178,
				0,
				0
			]
		},
		{
			"mesh":3,
			"name":"1600x800x400",
			"scale":[
				0.4000000059604645,
				1,
				0.4000000059604645
			],
			"translation":[
				-3.066681385040283,
				0,
				0
			]
		},
		{
			"mesh":4,
			"name":"Plane",
			"scale":[
				0.20000000298023224,
				1,
				0.20000000298023224
			],
			"translation":[
				0.6000000238418579,
				0,
				0
			]
		}
	],
	"meshes":[
		{
			"name":"Plane.002",
			"primitives":[
				{
					"attributes":{
						"POSITION":0,
						"NORMAL":1,
						"TEXCOORD_0":2
					},
					"indices":3
				}
			]
		},
		{
			"name":"Plane.004",
			"primitives":[
				{
					"attributes":{
						"POSITION":4,
						"NORMAL":5,
						"TEXCOORD_0":6
					},
					"indices":7
				}
			]
		},
		{
			"name":"Plane.007",
			"primitives":[
				{
					"attributes":{
						"POSITION":8,
						"NORMAL":9,
						"TEXCOORD_0":10
					},
					"indices":11
				}
			]
		},
		{
			"name":"Plane.009",
			"primitives":[
				{
					"attributes":{
						"POSITION":12,
						"NORMAL":13,
						"TEXCOORD_0":14
					},
					"indices":15
				}
			]
		},
		{
			"name":"Plane.011",
			"primitives":[
				{
					"attributes":{
						"POSITION":16,
						"NORMAL":17,
						"TEXCOORD_0":18
					},
					"indices":19
				}
			]
		}
	],
	"accessors":[
		{
			"bufferView":0,
			"componentType":5126,
			"count":490,
			"max":[
				1.0000009536743164,
				0.4399999976158142,
				0.9999999403953552
			],
			"min":[
				-0.9999989867210388,
				0.0006341934204101562,
				-0.9999999403953552
			],
			"type":"VEC3"
		},
		{
			"bufferView":1,
			"componentType":5126,
			"count":490,
			"type":"VEC3"
		},
		{
			"bufferView":2,
			"componentType":5126,
			"count":490,
			"type":"VEC2"
		},
		{
			"bufferView":3,
			"componentType":5123,
			"count":1344,
			"type":"SCALAR"
		},
		{
			"bufferView":4,
			"componentType":5126,
			"count":490,
			"max":[
				0.9999999403953552,
				0.8400000333786011,
				0.9999999403953552
			],
			"min":[
				-0.9999999403953552,
				0.003287017345428467,
				-0.9999999403953552
			],
			"type":"VEC3"
		},
		{
			"bufferView":5,
			"componentType":5126,
			"count":490,
			"type":"VEC3"
		},
		{
			"bufferView":6,
			"componentType":5126,
			"count":490,
			"type":"VEC2"
		},
		{
			"bufferView":7,
			"componentType":5123,
			"count":1344,
			"type":"SCALAR"
		},
		{
			"bufferView":8,
			"componentType":5126,
			"count":980,
			"max":[
				1.0000008344650269,
				0.8400000333786011,
				0.9999998807907104
			],
			"min":[
				-2.9999990463256836,
				0.003287017345428467,
				-0.9999998807907104
			],
			"type":"VEC3"
		},
		{
			"bufferView":9,
			"componentType":5126,
			"count":980,
			"type":"VEC3"
		},
		{
			"bufferView":10,
			"componentType":5126,
			"count":980,
			"type":"VEC2"
		},
		{
			"bufferView":11,
			"componentType":5123,
			"count":2688,
			"type":"SCALAR"
		},
		{
			"bufferView":12,
			"componentType":5126,
			"count":980,
			"max":[
				3.000001907348633,
				0.4399999976158142,
				0.9999998807907104
			],
			"min":[
				-0.9999979734420776,
				0.0006341934204101562,
				-0.9999998807907104
			],
			"type":"VEC3"
		},
		{
			"bufferView":13,
			"componentType":5126,
			"count":980,
			"type":"VEC3"
		},
		{
			"bufferView":14,
			"componentType":5126,
			"count":980,
			"type":"VEC2"
		},
		{
			"bufferView":15,
			"componentType":5123,
			"count":2688,
			"type":"SCALAR"
		},
		{
			"bufferView":16,
			"componentType":5126,
			"count":509,
			"max":[
				2.999999523162842,
				0.4300000071525574,
				0.9999999403953552
			],
			"min":[
				-1.000000238418579,
				0,
				-0.9999999403953552
			],
			"type":"VEC3"
		},
		{
			"bufferView":17,
			"componentType":5126,
			"count":509,
			"type":"VEC3"
		},
		{
			"bufferView":18,
			"componentType":5126,
			"count":509,
			"type":"VEC2"
		},
		{
			"bufferView":19,
			"componentType":5123,
			"count":1392,
			"type":"SCALAR"
		}
	],
	"bufferViews":[
		{
			"buffer":0,
			"byteLength":5880,
			"byteOffset":0,
			"target":34962
		},
		{
			"buffer":0,
			"byteLength":5880,
			"byteOffset":5880,
			"target":34962
		},
		{
			"buffer":0,
			"byteLength":3920,
			"byteOffset":11760,
			"target":34962
		},
		{
			"buffer":0,
			"byteLength":2688,
			"byteOffset":15680,
			"target":34963
		},
		{
			"buffer":0,
			"byteLength":5880,
			"byteOffset":18368,
			"target":34962
		},
		{
			"buffer":0,
			"byteLength":5880,
			"byteOffset":24248,
			"target":34962
		},
		{
			"buffer":0,
			"byteLength":3920,
			"byteOffset":30128,
			"target":34962
		},
		{
			"buffer":0,
			"byteLength":2688,
			"byteOffset":34048,
			"target":34963
		},
		{
			"buffer":0,
			"byteLength":11760,
			"byteOffset":36736,
			"target":34962
		},
		{
			"buffer":0,
			"byteLength":11760,
			"byteOffset":48496,
			"target":34962
		},
		{
			"buffer":0,
			"byteLength":7840,
			"byteOffset":60256,
			"target":34962
		},
		{
			"buffer":0,
			"byteLength":5376,
			"byteOffset":68096,
			"target":34963
		},
		{
			"buffer":0,
			"byteLength":11760,
			"byteOffset":73472,
			"target":34962
		},
		{
			"buffer":0,
			"byteLength":11760,
			"byteOffset":85232,
			"target":34962
		},
		{
			"buffer":0,
			"byteLength":7840,
			"byteOffset":96992,
			"target":34962
		},
		{
			"buffer":0,
			"byteLength":5376,
			"byteOffset":104832,
			"target":34963
		},
		{
			"buffer":0,
			"byteLength":6108,
			"byteOffset":110208,
			"target":34962
		},
		{
			"buffer":0,
			"byteLength":6108,
			"byteOffset":116316,
			"target":34962
		},
		{
			"buffer":0,
			"byteLength":4072,
			"byteOffset":122424,
			"target":34962
		},
		{
			"buffer":0,
			"byteLength":2784,
			"byteOffset":126496,
			"target":34963
		}
	],
	"buffers":[
		{
			"byteLength":129280,
			"uri":"1600x800x800.bin"
		}
	]
}
