{
	"asset":{
		"generator":"Khronos glTF Blender I/O v4.1.62",
		"version":"2.0"
	},
	"scene":0,
	"scenes":[
		{
			"name":"Scene",
			"nodes":[
				0
			]
		}
	],
	"nodes":[
		{
			"mesh":0,
			"name":"Plane",
			"scale":[
				0.800000011920929,
				1,
				0.4000000059604645
			],
			"translation":[
				-0.13300420343875885,
				0.027350157499313354,
				0.041158754378557205
			]
		}
	],
	"materials":[
		{
			"doubleSided":true,
			"name":"Material.001",
			"pbrMetallicRoughness":{
				"metallicFactor":0
			}
		}
	],
	"meshes":[
		{
			"name":"Plane",
			"primitives":[
				{
					"attributes":{
						"POSITION":0,
						"NORMAL":1,
						"TEXCOORD_0":2
					},
					"indices":3,
					"material":0
				}
			]
		}
	],
	"accessors":[
		{
			"bufferView":0,
			"componentType":5126,
			"count":2812,
			"max":[
				1,
				0.8427318930625916,
				1
			],
			"min":[
				-1,
				0,
				-1
			],
			"type":"VEC3"
		},
		{
			"bufferView":1,
			"componentType":5126,
			"count":2812,
			"type":"VEC3"
		},
		{
			"bufferView":2,
			"componentType":5126,
			"count":2812,
			"type":"VEC2"
		},
		{
			"bufferView":3,
			"componentType":5123,
			"count":8328,
			"type":"SCALAR"
		}
	],
	"bufferViews":[
		{
			"buffer":0,
			"byteLength":33744,
			"byteOffset":0,
			"target":34962
		},
		{
			"buffer":0,
			"byteLength":33744,
			"byteOffset":33744,
			"target":34962
		},
		{
			"buffer":0,
			"byteLength":22496,
			"byteOffset":67488,
			"target":34962
		},
		{
			"buffer":0,
			"byteLength":16656,
			"byteOffset":89984,
			"target":34963
		}
	],
	"buffers":[
		{
			"byteLength":106640,
			"uri":"agab_block_1600x800x800.bin"
		}
	]
}
