{
	"asset":{
		"generator":"Khronos glTF Blender I/O v4.1.62",
		"version":"2.0"
	},
	"scene":0,
	"scenes":[
		{
			"name":"Scene",
			"nodes":[
				0
			]
		}
	],
	"nodes":[
		{
			"mesh":0,
			"name":"1600x800x400"
		}
	],
	"meshes":[
		{
			"name":"Plane.009",
			"primitives":[
				{
					"attributes":{
						"POSITION":0,
						"NORMAL":1,
						"TEXCOORD_0":2
					},
					"indices":3
				}
			]
		}
	],
	"accessors":[
		{
			"bufferView":0,
			"componentType":5126,
			"count":980,
			"max":[
				0.8000001311302185,
				0.43885254859924316,
				0.3999999463558197
			],
			"min":[
				-0.7999997735023499,
				-0.0005132555961608887,
				-0.3999999463558197
			],
			"type":"VEC3"
		},
		{
			"bufferView":1,
			"componentType":5126,
			"count":980,
			"type":"VEC3"
		},
		{
			"bufferView":2,
			"componentType":5126,
			"count":980,
			"type":"VEC2"
		},
		{
			"bufferView":3,
			"componentType":5123,
			"count":2688,
			"type":"SCALAR"
		}
	],
	"bufferViews":[
		{
			"buffer":0,
			"byteLength":11760,
			"byteOffset":0,
			"target":34962
		},
		{
			"buffer":0,
			"byteLength":11760,
			"byteOffset":11760,
			"target":34962
		},
		{
			"buffer":0,
			"byteLength":7840,
			"byteOffset":23520,
			"target":34962
		},
		{
			"buffer":0,
			"byteLength":5376,
			"byteOffset":31360,
			"target":34963
		}
	],
	"buffers":[
		{
			"byteLength":36736,
			"uri":"agab_block_1600x800x400.bin"
		}
	]
}
